<svg xmlns="http://www.w3.org/2000/svg" width="256" height="256"><path fill-opacity=".016" d="M0 128.004v128.004l128.25-.254 128.25-.254.254-127.75L257.008 0H0v128.004m.485.496c0 70.4.119 99.053.265 63.672.146-35.38.146-92.98 0-128C.604 29.153.485 58.1.485 128.5" fill="#1976D2" fill-rule="evenodd"/><path fill-opacity=".283" d="M0 128.004v128.004l128.25-.254 128.25-.254.254-127.75L257.008 0H0v128.004m.485.496c0 70.4.119 99.053.265 63.672.146-35.38.146-92.98 0-128C.604 29.153.485 58.1.485 128.5M118.5 63.282L70.5 87.5l-1.412 4.084c-1.282 3.709-1.237 4.442.5 8 1.838 3.764 3.465 4.698 41.801 23.996 21.939 11.044 40.502 20.917 41.25 21.941 1.747 2.39 1.749 7.567.002 9.955-.747 1.021-16.159 9.32-34.25 18.441L85.5 190.5v13c0 12.261.114 13.012 2 13.218 1.1.12 23.6-10.68 50-24l48-24.218 1.412-4.084c1.282-3.709 1.237-4.442-.5-8-1.836-3.761-3.485-4.71-41.552-23.916-21.802-11-40.365-20.618-41.25-21.372-1.98-1.688-2.13-8.034-.251-10.604.747-1.021 16.159-9.32 34.25-18.441L170.5 65.5v-13c0-12.261-.114-13.012-2-13.218-1.1-.12-23.6 10.68-50 24" fill="#1976D2" fill-rule="evenodd"/><path fill-opacity=".572" d="M0 128.004v128.004l128.25-.254 128.25-.254.254-127.75L257.008 0H0v128.004m.485.496c0 70.4.119 99.053.265 63.672.146-35.38.146-92.98 0-128C.604 29.153.485 58.1.485 128.5m119.382-66.502c-32.284 16.191-48.315 24.756-49.75 26.58-3.034 3.857-2.812 9.443.533 13.418 1.936 2.301 13.17 8.41 41.723 22.691 21.49 10.748 39.634 20.277 40.318 21.177 1.731 2.274 1.608 6.264-.275 8.953-.95 1.356-14.762 8.853-34.5 18.725L85 190.006v12.874c0 9.857.33 13.149 1.409 14.045 1.125.933 11.097-3.675 49.383-22.821 32.616-16.311 48.652-24.853 50.091-26.682 1.23-1.564 2.117-4.142 2.117-6.153 0-7.608-.476-7.931-43.487-29.49-21.992-11.024-40.54-20.772-41.218-21.661-1.718-2.257-1.588-6.254.289-8.935.95-1.356 14.762-8.853 34.5-18.725L171 65.994V53.197c0-11.831-.689-15.367-2.95-15.142-.302.03-21.985 10.804-48.183 23.943" fill="#1976D2" fill-rule="evenodd"/><path fill-opacity=".416" d="M0 128.004v128.004l128.25-.254 128.25-.254.254-127.75L257.008 0H0v128.004m.485.496c0 70.4.119 99.053.265 63.672.146-35.38.146-92.98 0-128C.604 29.153.485 58.1.485 128.5m118.284-66.437C66.891 88.107 68 87.37 68 95.84c0 2.332.749 4.864 1.837 6.207 1.011 1.248 19.798 11.311 41.75 22.361 42.871 21.581 43.668 22.123 41.704 28.377-.736 2.342-5.369 4.994-33.713 19.298-18.074 9.121-33.472 17.42-34.219 18.441-.948 1.296-1.359 5.148-1.359 12.733 0 11.058.889 14.743 3.559 14.743.818 0 23.069-10.806 49.445-24.012C189.139 167.883 188 168.639 188 160.16c0-2.332-.749-4.864-1.837-6.207-1.011-1.248-19.798-11.311-41.75-22.361-42.871-21.581-43.668-22.123-41.704-28.377.736-2.342 5.369-4.994 33.713-19.298 18.074-9.121 33.472-17.42 34.219-18.441.948-1.296 1.359-5.148 1.359-12.733 0-11.324-.89-14.778-3.785-14.693-.943.028-23.194 10.834-49.446 24.013" fill="#1976D2" fill-rule="evenodd"/></svg>