<svg width="148" height="160" viewBox="0 0 148 160" xmlns="http://www.w3.org/2000/svg"><g fill="none" fill-rule="evenodd"><path d="M22.651 159.82H10.065c-.772 0-1.399-.612-1.399-1.367v-8.888H24.05v8.888c0 .755-.626 1.368-1.399 1.368M136.32 159.82h-12.586c-.773 0-1.399-.612-1.399-1.367v-8.888h15.384v8.888c0 .755-.626 1.368-1.399 1.368" fill="#78809C"/><path d="M4.728 153.838c-2.545 0-4.608-2.056-4.608-4.592V4.592C.12 2.056 2.183 0 4.728 0h137.784c2.544 0 4.608 2.056 4.608 4.592v144.654c0 2.536-2.064 4.592-4.608 4.592H4.728z" fill="#B8BED1"/><path d="M129.695 140.163H17.545a3.75 3.75 0 0 1-3.75-3.75V18.28a3.75 3.75 0 0 1 3.75-3.75h112.15a3.75 3.75 0 0 1 3.75 3.75v118.133a3.75 3.75 0 0 1-3.75 3.75" fill="#78809C"/><path d="M16.453 137.361A1.454 1.454 0 0 1 15 135.908V17.453c0-.8.651-1.453 1.453-1.453h112.472c.801 0 1.453.652 1.453 1.453v118.455c0 .801-.652 1.453-1.453 1.453H16.453z" fill="#B8BED1"/><path d="M112.934 76.919c0-5.664-4.591-10.256-10.255-10.256-5.665 0-10.257 4.592-10.257 10.256 0 5.664 4.592 10.256 10.257 10.256 5.664 0 10.255-4.592 10.255-10.256" fill="#C8CEE3"/><path d="M108.66 77.774a5.982 5.982 0 1 0-11.964-.001 5.982 5.982 0 0 0 11.965 0" fill="#9DA5C4"/><path d="M103.106 101.704c-2.124 0-3.846-1.8-3.846-4.018V78.373c0-2.22 1.722-4.018 3.846-4.018 2.123 0 3.846 1.799 3.846 4.018v19.313c0 2.219-1.723 4.018-3.846 4.018" fill="#EDEDED"/><path d="M23.93 47.86H12.94v-8.546h10.99c2.426 0 4.393 1.913 4.393 4.272v.003c0 2.359-1.967 4.272-4.394 4.272M12.94 106.832v8.546h10.99c2.426 0 4.393-1.912 4.393-4.272v-.003c0-2.358-1.967-4.271-4.394-4.271H12.94z" fill="#C8CEE3"/><path d="M77.5 69a7.5 7.5 0 1 0 0 15 7.5 7.5 0 0 0 0-15z" fill="#C8CEE3" fill-rule="nonzero"/><path d="M78.55 76.5l.71 3.545a1 1 0 0 1-1 1.195h-1.54a1 1 0 0 1-1-1.195l.73-3.545a2.5 2.5 0 1 1 2.105 0h-.005z" fill="#666" fill-rule="nonzero"/></g></svg>