<svg width="338" height="266" viewBox="0 0 338 266"
    xmlns="http://www.w3.org/2000/svg">
    <g fill-rule="nonzero" fill="none">
        <path d="M337.445 250.762l-336 1.795s161.649 29.317 336-1.795" fill="#8E8E93"/>
        <path d="M47.607 232.331l2.266 19.862h5.381l1.008-20.032-8.655.17zm245.232 0l-2.266 19.862h-5.381l-1.009-20.032 8.656.17z" fill="#8F4B20"/>
        <path fill="#005B6C" d="M287.43 172.344l-22-.784.867 33.431 21.133 8.569z"/>
        <path d="M69.245 203.723l9.36-40.258c3.5-15.052 17.27-25.742 33.16-25.742h118.949c16.063 0 29.935 10.92 33.259 26.183l8.67 39.817H69.245z" fill="#1E778E"/>
        <path d="M70.593 203.544H268.66c9.37 0 16.967 6.854 16.967 15.31v20.461h-232v-20.462c0-8.455 7.596-15.31 16.967-15.31" fill="#418FA2"/>
        <path d="M278.413 239.315V182.28c0-5.641 4.558-10.215 10.181-10.215h4.162c5.622 0 10.18 4.574 10.18 10.215v57.036h-24.523v-.001zm-214.938 0v-57.037c0-5.64-4.558-10.214-10.181-10.214h-4.161c-5.623 0-10.181 4.573-10.181 10.214v57.037h24.523z" fill="#1E778E"/>
        <path fill="#1E778E" d="M278.413 239.315h-215v-21.463h215z"/>
        <path d="M212.056 144.878v41.495s9.738-20.748 0-41.495m-79.339 1.431v41.495s-9.737-20.747 0-41.495" fill="#005B6C"/>
        <path d="M85.88 172.419s8.234 21.057 7.877 24.566c-.358 3.51-2.865 7.782-4.536 7.782l-28.169.207s-3.25-.618-4.907-5.882c-1.657-5.265-7.028-25.27-7.028-25.854 0-.585-.716-3.955 2.507-6.54 3.222-2.585 24.468-1.945 28.526-.713 2.973.903 4.132 2.25 5.73 6.434" fill="#F78C1E"/>
        <path d="M54.185 167.772l10.732 34.34s-15.15-18.93-10.732-34.34m19.388 11.447l-11.54-10.016s10.467 3.953 11.54 10.016m6.727-10.016l-2.4 8.585s4.302-4.25 2.4-8.585m-3.842 15.739l-5.74 12.878s-.8-9.884 5.74-12.878m14.425 11.448l-11.54-10.017s10.144 3.001 11.54 10.016" fill="#D2731A"/>
        <path d="M165.681 180.65s1.336 18.247-2.671 24.324l2.671-24.324z" fill="#47416F"/>
        <path d="M239.465 202.944s2.871 3.499 7.068 8.123c0 0 0 .006.005.011l1.1 1.198c1.432 1.565 3.663 1.56 6.104.73 3.11-1.06 6.564-3.455 9.153-5.646 1.455-1.236 2.639-2.406 3.335-3.235 0-.005.006-.005.012-.01 1.297-1.325 1.642-3.549 1.642-3.549.612-.5.895-2.471-1.416-1.28-.951.495-3.5 1.209-6.156 1.879l-.006.005c-3.789.956-7.81 1.824-7.81 1.824a6.638 6.638 0 0 0-1.29.45l-3.569-5.624-8.172 5.124z" fill="#E05B50"/>
        <path d="M262.597 207.836c1.536-1.255 2.784-2.444 3.519-3.287 0-.005.006-.005.012-.01 1.368-1.345 1.732-3.605 1.732-3.605.646-.508.944-2.511-1.493-1.3-1.004.502-3.692 1.227-6.494 1.908l-.006.005c-.06.212-1.23 4.492 2.73 6.29" fill="#B8413C"/>
        <path d="M249.562 209.233s-1.226-.04-1.886-1.195c-.66-1.155-.52-1.633-.52-1.633s-2.073 3.226 2.406 2.828" fill="#CB5353"/>
        <path d="M246.677 211.28s0 .005.006.01l1.1 1.095c1.433 1.432 3.665 1.427 6.107.668 0 0-1.4-2.25-3.484-2.347-2.091-.09-3.729.574-3.729.574" fill="#B8413C"/>
        <path d="M98.096 190.497s13.394 22.943 29.778 19.928c16.384-3.016 19.268-48.377 19.268-48.377h-7.474s-6.82 26.352-12.722 28.45c-5.9 2.097-13.507-6.15-13.507-6.15s-11.54-4.208-15.343 6.15" fill="#F2B387"/>
        <path d="M138.697 162.564s-.946-1.96-1.565-5.155c-.618-3.195 2.231-6.074 2.59-6.89.358-.817 1.792-.41.717 3.112-1.076 3.523 1.537 1.123 3.279-1.378 1.74-2.501.205-5.308 2.458-8.013 2.254-2.706 1.998 2.245 1.64 3.93 0 0 1.23.664 1.486 2.246.255 1.582 0 2.59 0 2.59s.819.88.716 2.259c-.102 1.378-.46 1.633-.46 1.633s.512.817.153 2.552c-.358 1.736-3.996 6.89-3.996 6.89l-7.018-3.776zm-41.653 1.48l5.38 6.197s-9.627 5.945-15.036 4.441L77.9 163.48s15.18 3.722 19.144.565" fill="#F2B387"/>
        <path d="M75.532 157.865c1.239-1.647 2.49-1.79 3.224-1.684-1.619-5.547-1.063-12.924 10.45-17.027 0 0 4.12 1.623 5.467 5.658 1.347 4.034 6.725 4.139 6.725 4.139s1.713 7.32 3.91 11.316c0 0-3.651 4.972-12.19 5.92-8.54.946-10.753-2.771-10.753-2.771-5.043 2.206-8.758-2.993-6.833-5.551" fill="#FDCCA5"/>
        <path d="M84.292 143.447l-4.342 4.773s4.316 3.823 3.317 7.338c0 0 1.934 2.611.61 3.858 0 0-3.049-2.712-5.384-2.713-2.335 0-4.583 4.68.034 7.578 0 0 3.036.59 4.062-.16 0 0 1.564.849 1.703 2.124.025.228-.839 2.958-1.567 2.958 0 0-6.232-2.066-9.617-4.623-3.385-2.557-8.745-8.598-5.985-13.725 0 0 .546-8.593 11.117-13.948 5.62-2.847 8.78-3.66 10.539-3.443 1.549.19 2.009 1.18 2.102 2.281.134 1.567-2.063 4.135-6.589 7.702z" fill="#3C3C42"/>
        <path d="M161.081 179.63L275.738 165l3.55 10.263s-78.544 27.5-99.568 28.348c-21.022.849-18.639-23.98-18.639-23.98" fill="#47416F"/>
        <path d="M102.23 170.634s-11.059 4.3-15.675 3.23c0 0 .086 14.792 9.94 25.544 9.855 10.752 21.74 11.482 41.963 11.26 19.591-.217 20.48-1.297 20.48-1.297l2.63-30.89-33.532-2.873s-16.838-4.7-25.807-4.974" fill="#0047AB"/>
        <path d="M161.219 178.558s19.176-17.887 37.765-23.244c18.588-5.356 49.578 42.237 49.578 42.237l-11.398 6.56-34.458-26.252s-11.777 28.387-43.864 31.408l2.377-30.709z" fill="#524779"/>
        <path d="M95.21 187.636s13.396 22.943 29.779 19.927c16.383-3.015 19.268-48.376 19.268-48.376h-7.475s-6.82 26.35-12.72 28.449c-5.902 2.097-13.508-6.15-13.508-6.15s-11.54-4.207-15.343 6.15" fill="#FDCCA5"/>
        <path d="M118.291 184.85l-14.747 15.832s-12.428-10.546-11.122-15.35c1.307-4.804 8.362-14.005 25.87-.483" fill="#0047AB"/>
        <path d="M139.185 154.815a1.092 1.092 0 0 0 1.426-.638l7.897-20.633a1.14 1.14 0 0 0-.621-1.465 1.09 1.09 0 0 0-1.426.638l-7.898 20.633a1.14 1.14 0 0 0 .622 1.465" fill="#666"/>
        <path d="M135.812 159.702s-.947-1.96-1.565-5.155c-.619-3.195 2.23-6.074 2.59-6.89.358-.817 1.792-.41.717 3.113-1.076 3.521 1.536 1.122 3.278-1.379 1.742-2.5.205-5.308 2.459-8.013s1.998 2.246 1.64 3.93c0 0 1.229.664 1.485 2.246.256 1.582 0 2.59 0 2.59s.82.88.717 2.259c-.103 1.378-.46 1.633-.46 1.633s.511.817.153 2.552c-.359 1.735-3.996 6.891-3.996 6.891l-7.018-3.777z" fill="#FDCCA5"/>
        <path d="M92.326 144.96s-1.25-.494-2.918.948c-1.67 1.442-1.393 3.262-1.393 3.262s1.966-3.603 4.31-4.21m.849 4.546c.726.768 1.58 1.24 1.908 1.055.328-.186.005-.958-.72-1.727-.726-.768-1.58-1.24-1.908-1.054-.328.185-.006.958.72 1.726" fill="#666"/>
        <path d="M203.401 169.203v7.154s-3.246-3.652 0-7.154" fill="#47416F"/>
        <path d="M122.619 189.235l-.732 7.154s-2.01-3.596.732-7.154" fill="#F2B387"/>
        <path d="M276 165.603l1.596 9.583s4.583-1.174 10.809-3.094h.011c.53-.17 1.072-.34 1.62-.509 2.113-.666 3.028-2.704 3.231-5.274.204-2.637-.337-5.839-1.106-8.696a46.23 46.23 0 0 0-.588-1.993c-.6-1.84-1.246-3.405-1.765-4.382v-.006c-.011-.107-.017-.209-.029-.31-.192-2.564-2.475-3.434-2.766-2.637-.17.474-.268 1.31-.32 1.914-.292.141-.594.327-.746.56-.338.513-1.176 2.162-1.293 2.444-.07.17-.052.994-.029 1.615a6.262 6.262 0 0 0-.14.6l.006.004c-.13.79-.266 1.579-.407 2.366a308.646 308.646 0 0 1-1.049 5.523c-.087.44-.11.915-.099 1.36l-6.936.932z" fill="#E05B50"/>
        <path d="M287.069 167.772s-.384.732-1.47.768c-1.085.036-1.416-.2-1.416-.2s1.906 2.278 2.886-.568" fill="#CB5353"/>
        <path d="M289 171.724s.004.002.011-.001l1.44-.503c1.88-.655 2.695-2.674 2.876-5.22 0 0-2.64.259-3.497 2.1-.855 1.848-.83 3.624-.83 3.624m-4-13.708c3.607-2.356 5.738-.864 7.213-.18a52.658 52.658 0 0 0-.525-2.04c-.536-1.883-1.113-3.483-1.576-4.483v-.006c-.01-.11-.015-.213-.026-.317-.171-2.624-2.21-3.513-2.47-2.699-.15.486-.239 1.34-.286 1.96-.26.143-.53.334-.665.571-.302.526-1.05 2.213-1.155 2.502-.062.173-.047 1.017-.026 1.652-.05.203-.092.407-.125.613l.005.006a221.76 221.76 0 0 1-.364 2.42" fill="#B8413C"/>
        <path d="M245.235 192.097l-11.54 7.154s9.32-2.293 11.54-7.154" fill="#5E5887"/>
        <path d="M269.758 166.91l2.74 10.016s1.1-8.984-2.74-10.016" fill="#38355A"/>
        <path stroke="#0047AB" stroke-width="2" fill="#FFF" d="M168 66h160v46H168z"/>
        <path d="M314.302 79.92l-10.017 20.194c-1.68 4.194-5.678 4.264-7.575 0l-9.95-20.007a.436.436 0 0 1 .397-.63h6.823c.167 0 .32.095.393.243l7.91 15.818c.192.386.59.631 1.024.631.435 0 .832-.245 1.024-.63l7.876-15.819a.443.443 0 0 1 .397-.244h1.42a.31.31 0 0 1 .219.09.304.304 0 0 1 .059.353v.001z" fill="#5DA7DA"/>
        <path d="M196.73 97.227V92.28h4.711v-1.898h-4.71v-4.945h-1.899v4.945h-4.71v1.898h4.71v4.946h1.898v.001zm14.296.773V81.09h-2.098l-4.5 3.234v2.227l4.3-3.117h.188V98h2.11zm10.146.398c3.797 0 5.977-3.21 5.977-8.824 0-5.601-2.215-8.883-5.977-8.883-3.785 0-6 3.27-6 8.848 0 5.625 2.192 8.86 6 8.86v-.001zm0-1.84c-2.496 0-3.879-2.496-3.879-7.019 0-4.465 1.407-6.996 3.88-6.996 2.472 0 3.855 2.508 3.855 6.996 0 4.535-1.36 7.02-3.856 7.02v-.001zm14.541 1.84c3.797 0 5.977-3.21 5.977-8.824 0-5.601-2.215-8.883-5.977-8.883-3.785 0-6 3.27-6 8.848 0 5.625 2.192 8.86 6 8.86v-.001zm0-1.84c-2.496 0-3.878-2.496-3.878-7.019 0-4.465 1.406-6.996 3.878-6.996 2.473 0 3.856 2.508 3.856 6.996 0 4.535-1.36 7.02-3.856 7.02v-.001zm9.596 1.56c.844 0 1.524-.692 1.524-1.524a1.52 1.52 0 0 0-1.524-1.524c-.832 0-1.523.68-1.523 1.524 0 .832.691 1.523 1.523 1.523v.001zm9.62.28c3.796 0 5.976-3.21 5.976-8.824 0-5.601-2.215-8.883-5.976-8.883-3.786 0-6 3.27-6 8.848 0 5.625 2.191 8.86 6 8.86v-.001zm0-1.84c-2.496 0-3.88-2.496-3.88-7.019 0-4.465 1.407-6.996 3.88-6.996 2.472 0 3.855 2.508 3.855 6.996 0 4.535-1.36 7.02-3.855 7.02v-.001zm14.54 1.84c3.798 0 5.977-3.21 5.977-8.824 0-5.601-2.215-8.883-5.976-8.883-3.785 0-6 3.27-6 8.848 0 5.625 2.191 8.86 6 8.86l-.001-.001zm0-1.84c-2.495 0-3.878-2.496-3.878-7.019 0-4.465 1.406-6.996 3.879-6.996 2.472 0 3.855 2.508 3.855 6.996 0 4.535-1.36 7.02-3.855 7.02l-.001-.001z" fill="#4CB04F"/>
        <g>
            <path stroke="#0047AB" stroke-width="2" fill="#FFF" d="M1 1h160v46H1z"/>
            <path fill="#085385" d="M139.615 22.293h5.041L130.42 39.108l4.566-11.3h-4.725l5.572-15.495h9.388z"/>
            <path d="M39.478 27.152v-1.91H31.79v1.91h7.688zm9.104 6.235c3.468 0 5.93-2.426 5.93-5.825 0-3.28-2.333-5.66-5.555-5.66-2.016 0-3.668.961-4.5 2.602h-.188c.07-4.594 1.711-6.938 4.524-6.938 1.71 0 2.953.88 3.304 2.45h2.168c-.433-2.625-2.46-4.325-5.543-4.325-3.996 0-6.504 3.329-6.504 9.141 0 5.695 2.684 8.555 6.364 8.555zm-.024-1.852c-2.168 0-3.82-1.71-3.82-3.973 0-2.238 1.605-3.832 3.844-3.832 2.238 0 3.797 1.594 3.797 3.903 0 2.215-1.653 3.902-3.82 3.902h-.001zm14.74 1.852c3.47 0 5.93-2.426 5.93-5.825 0-3.28-2.332-5.66-5.554-5.66-2.016 0-3.668.961-4.5 2.602h-.188c.07-4.594 1.711-6.938 4.524-6.938 1.71 0 2.953.88 3.304 2.45h2.168c-.433-2.625-2.46-4.325-5.543-4.325-3.996 0-6.504 3.329-6.504 9.141 0 5.695 2.684 8.555 6.364 8.555h-.001zm-.023-1.852c-2.168 0-3.82-1.71-3.82-3.973 0-2.238 1.605-3.832 3.844-3.832 2.238 0 3.797 1.594 3.797 3.903 0 2.215-1.653 3.902-3.82 3.902h-.001zm9.62 1.582c.843 0 1.523-.691 1.523-1.523a1.52 1.52 0 0 0-1.523-1.524c-.832 0-1.524.68-1.524 1.524 0 .832.692 1.523 1.524 1.523zm9.619.281c3.797 0 5.976-3.21 5.976-8.824 0-5.601-2.214-8.883-5.976-8.883-3.785 0-6 3.27-6 8.848 0 5.625 2.191 8.86 6 8.86v-.001zm0-1.84c-2.496 0-3.88-2.495-3.88-7.019 0-4.465 1.407-6.996 3.88-6.996s3.855 2.508 3.855 6.996c0 4.535-1.36 7.02-3.855 7.02v-.001zm14.541 1.84c3.797 0 5.977-3.21 5.977-8.824 0-5.601-2.215-8.883-5.977-8.883-3.785 0-6 3.27-6 8.848 0 5.625 2.191 8.86 6 8.86v-.001zm0-1.84c-2.496 0-3.879-2.495-3.879-7.019 0-4.465 1.406-6.996 3.879-6.996s3.855 2.508 3.855 6.996c0 4.535-1.359 7.02-3.855 7.02v-.001z" fill="#F44336"/>
        </g>
    </g>
</svg>