<svg width="330" height="360" viewBox="0 0 330 360" xmlns="http://www.w3.org/2000/svg"><g transform="translate(-35 -20)"><path d="M168.59 47.646c0-10.304 5.686-20.016 15.3-24.84C187.745 20.87 192.041 20 196.35 20h140.89c4.308 0 8.604.87 12.46 2.806 9.613 4.824 15.3 14.536 15.3 24.84V347.11c0 3.862-.677 7.722-2.216 11.26-4.546 10.456-14.51 16.688-25.109 16.688H196.35c-4.308 0-8.604-.873-12.46-2.807-9.614-4.825-15.3-14.536-15.3-24.84V47.645z" fill="#515151"/><path d="M176.33 345.865c0 10.69 8.604 19.357 19.216 19.357h142.498c10.612 0 19.216-8.667 19.216-19.357V46.243c0-10.691-8.604-19.358-19.216-19.358H195.548c-10.614 0-19.217 8.667-19.217 19.358v299.622z" fill="#EFEFF4"/><path d="M176.33 286.54h180.93v58.682c0 11.046-8.955 20-20 20H196.33c-11.045 0-20-8.954-20-20V286.54z" fill="#FFF"/><path d="M190.844 109.502h151.903v44.26H190.844v-44.26zM190.844 187.202h151.903v44.259H190.844v-44.26z" fill="none" stroke="#979797" stroke-dasharray="6"/><path d="M246.613 20c-1.565 1.542-2.555 3.799-2.555 6.33 0 4.666 3.35 8.423 7.513 8.423h32.383c4.163 0 7.513-3.757 7.513-8.424 0-2.53-.99-4.787-2.556-6.329h-42.298z" fill="#515151"/><path fill="#0047AB" d="M238.253 331.782h58.052v19.671h-58.052z"/><rect fill="#F44336" x="190.844" y="298.342" width="19.351" height="19.671" rx="9.675"/><path d="M191.693 311.865c4.181-.383 7.444-3.567 7.444-7.438 0-1.856-.749-3.55-1.99-4.856-1.833.683-3.34 1.82-4.525 3.411-1.184 1.59-1.777 3.262-1.778 5.014.032.903.105 1.587.219 2.051.139.568.349 1.174.63 1.818z" fill="#CDDC39" style="mix-blend-mode:soft-light"/><path d="M210.194 309.093c-.482-5.684-4.915-10.22-10.492-10.751-2.587.275-4.72 1.365-6.402 3.27-1.68 1.904-2.5 4.217-2.455 6.936.221 2.877 1.258 5.16 3.11 6.85 1.852 1.69 4.068 2.561 6.647 2.614 3.088-.106 5.542-1.291 7.363-3.555.653-.719 1.213-1.71 1.68-2.974.207-.561.39-1.358.55-2.39z" fill="#FFC107" style="mix-blend-mode:soft-light"/><path d="M199.447 318.012c3.832-1.678 6.14-5.342 6.14-9.826 0-4.338-2.508-8.085-6.14-9.844a8.871 8.871 0 0 0-3.275 1.027c-1.03.558-1.997 1.329-2.899 2.313-1.524 1.753-2.334 3.89-2.43 6.411-.014 2.503.795 4.697 2.43 6.582 1.635 1.885 3.693 2.998 6.174 3.337z" fill="#03A9F4" style="mix-blend-mode:soft-light"/><path fill="#C7C7CC" d="M217.935 302.276h68.695v5.901h-68.695z"/><path fill="#D8D8D8" d="M217.935 312.111h68.695v5.901h-68.695z"/><path stroke="#0047AB" stroke-width="2" fill="#FFF" d="M142.467 164.58H311.03v49.177H142.467z"/><path fill="#085385" d="M166.083 187.344h5.31l-14.997 17.976 4.81-12.08h-4.978l5.87-16.566h9.89z"/><path fill="#D8D8D8" d="M185.552 176.106h63.495v10.757h-63.495zM259.629 195.316h42.33v10.757h-42.33z"/><path d="M212.554 194.85v7.119h6.672v-3l4.314 3.749-4.314 3.748v-2.999h-7.41a.744.744 0 0 1-.737-.75v-7.868h1.475z" fill="#8E8E93"/><ellipse fill="#D8D8D8" cx="240.732" cy="200.695" rx="9.071" ry="9.221"/><path stroke="#0047AB" stroke-width="2" fill="#FFF" d="M98.928 85.897h168.35v49.177H98.929z"/><path fill="#D8D8D8" d="M142.467 97.7h62.89v10.819h-62.89zM211.162 116.387h48.377v10.819h-48.377z"/><path d="M168.458 116.166v7.456h6.988v-3.142l4.517 3.927-4.517 3.925v-3.14h-7.76a.779.779 0 0 1-.772-.785v-8.24h1.544z" fill="#8E8E93"/><path d="M134.37 100.661l-10.66 21.849c-1.788 4.538-6.043 4.612-8.062 0l-10.59-21.646a.476.476 0 0 1 .422-.682h7.262c.178.001.34.103.418.264l8.42 17.113c.204.418.626.683 1.09.683.462 0 .885-.265 1.089-.683l8.382-17.113a.47.47 0 0 1 .422-.264h1.512a.328.328 0 0 1 .329.33c0 .052-.01.103-.033.15z" fill="#5DA7DA"/><ellipse fill="#D8D8D8" cx="196.649" cy="123.272" rx="8.708" ry="8.852"/><path fill="#C7C7CC" d="M232.448 47.539h77.403V67.21h-77.403z"/><path fill="#F2A497" d="M50.55 358.852l.096 14.239 25.06-.515-.094-14.238z"/><path d="M108.78 351.119l-8.453-10.087-2.515 10.874 10.967-.787zm25.386-9.502l27.525 14.842c.436 2.92-.3 5.606-1.557 7.956-3.31 6.138-10.043 11.064-17.125 10.612l-73.107.03v-20.782h5.802l7.443-34.472c1.402-9.304 5.777-10.544 9.212-10.642h.25c2.633 0 4.799 1.043 6.521 2.498l35.036 29.958z" fill="#3865AF"/><path d="M43.305 377.025s4.783-.2 12.084-2.187l-.251-18.355s-3.892-.387-4.57-6.21c-.677-5.823-3.712-9.096-7.757-9.64" fill="#0F111E"/><path d="M51.504 355.387s.21 1.103-.953 2.95M50.53 352.436s.244 2.038-.947 2.95" stroke="#FEFEFE" stroke-width=".742" stroke-linecap="round" stroke-linejoin="round"/><path d="M122.198 266.475s.523 5.685 1.335 13.849c.426 4.318 4.557 7.308 8.427 5.832l.32-.128 5.96 11.33 11.967-6.451-7.566-14.144c5.68-10.337-3.24-23.42-14.493-20.223-.27.079-.551.158-.841.257l-.03.01c-.493.177-5.688 2.192-5.079 9.668" fill="#F9BA8C"/><path d="M124.32 274.737l-2.053 2.204c-.282.304-.028.755.42.746l2.364-.048-.73-2.902z" fill="#F9BA8C"/><path d="M125.504 265.9s-2.346-.128-2.388 1.676c0 0-.01 1.22 2.037 1.257 2.047.038 2.583-.298 2.784-1.466.196-1.164-1.33-1.567-2.433-1.468M125.995 272.544c-.145.801-.9 1.33-1.69 1.185a1.476 1.476 0 0 1-1.165-1.716c.145-.802.9-1.334 1.688-1.186.79.147 1.31.915 1.167 1.717" fill="#010202"/><path d="M118.28 257.235c.107 5.82 8.976 3.722 8.976 3.722 1.692 5.674 8.536 1.243 8.536 1.243l-.332 5.83a3.835 3.835 0 0 0 3.168 3.984l4.058 4.11.352.301 2.474 2.246 1.095-1.4 1.066 1.4 5.798-11.408c6.21-14.322-7.96-15.945-7.96-15.945s-.351-2.487-2.238-2.993c-1.888-.504-2.846 2.672-2.846 2.672s-2.728-3.284-4.635-2.76c-1.897.526-.264 3.003-.264 3.003-11.91.214-17.346.165-17.248 5.995" fill="#071C3A"/><path d="M138.888 318.102c.203 10.68-4.76 21.047-5.109 21.766l-.02.039c0 .295.126 18.52 31.127 19.414 0 0 7.276-27.332 3.667-47.623-2.777-15.609-13.323-19.975-16.622-20.968l-.223-.069c-.493-.138-.774-.188-.774-.188l-10.363 5.745-31 8.182 1.18 15.58 28.137-1.878z" fill="#B93049"/><path d="M144.316 271.948c.446 2.125-.886 4.215-2.976 4.668-2.09.454-4.146-.9-4.592-3.025-.446-2.125.886-4.215 2.976-4.668 2.089-.453 4.146.9 4.592 3.025" fill="#F9BA8C"/><path d="M77.65 264.365l1.82 23.643c.116 1.426 1.385 2.646 2.845 2.744l11.264.699c1.452.099 2.545-.984 2.439-2.41l-1.83-23.643c-.106-1.416-1.383-2.646-2.835-2.733l-11.263-.71c-1.462-.088-2.556.995-2.44 2.41" fill="#010202"/><path d="M76.62 290.043c1.18 2.872 3.157 4.79 5.68 5.242l28.238 24.695-1.17-15.578-18.517-13.208c1.276-2.125 1.574-4.76.556-7.22-1.775-4.297-6.87-6.412-11.39-4.72-4.52 1.682-5.173 6.491-3.397 10.789" fill="#F9BA8C"/></g></svg>