<svg xmlns="http://www.w3.org/2000/svg" viewBox="0 0 336 261.76"><path d="M336 247.76L0 249.52s161.65 28.68 336-1.76" fill="#8e8e93"/><path d="M46.61 229.33l2.26 19.86h5.38l1-20zm245.23 0l-2.27 19.86h-5.38l-1-20z" fill="#8f4b20"/><path d="M286.43 169.34l-22-.78.87 33.44 21.13 8.57z" fill="#005b6c"/><path d="M68.25 200.72l9.36-40.25c3.5-15.06 17.27-25.75 33.15-25.75h119c16.07 0 29.94 10.92 33.26 26.19l8.67 39.81z" fill="#1e778e"/><path d="M69.59 200.54h198.07c9.37 0 17 6.86 17 15.31v20.47h-232v-20.47c0-8.45 7.59-15.31 17-15.31" fill="#418fa2"/><path d="M301.94 179.28v57H38v-57a10.2 10.2 0 0 1 10.18-10.22h4.16a10.2 10.2 0 0 1 10.18 10.22v35.57h214.89v-35.57a10.2 10.2 0 0 1 10.18-10.21h4.17a10.2 10.2 0 0 1 10.18 10.21z" fill="#1e778e"/><path d="M211.06 141.88v41.49s9.73-20.75 0-41.49m-79.34 1.43v41.49s-9.74-20.74 0-41.49" fill="#005b6c"/><path d="M84.88 169.42s8.23 21.06 7.88 24.57-2.87 7.78-4.54 7.78l-28.17.2s-3.25-.61-4.91-5.88-7-25.27-7-25.85a6.9 6.9 0 0 1 2.5-6.54c3.23-2.59 24.47-1.95 28.53-.71 3 .9 4.13 2.25 5.73 6.43" fill="#f78c1e"/><path d="M53.19 164.77l10.73 34.34s-15.15-18.93-10.74-34.34m19.39 11.45L61 166.2s10.47 4 11.54 10m6.73-10l-2.4 8.59s4.3-4.25 2.4-8.59m-3.84 15.74l-5.74 12.88s-.8-9.88 5.74-12.88m14.42 11.45l-11.54-10s10.15 3 11.54 10" fill="#d2731a"/><path d="M238.46 199.94s2.88 3.5 7.07 8.13l1.1 1.2c1.43 1.56 3.66 1.56 6.1.73a31.5 31.5 0 0 0 9.16-5.65 30.89 30.89 0 0 0 3.33-3.24 7.41 7.41 0 0 0 1.64-3.55c.62-.5.9-2.47-1.41-1.28a40.72 40.72 0 0 1-6.16 1.88c-3.79 1-7.81 1.82-7.81 1.82a7 7 0 0 0-1.29.45l-3.57-5.62-8.17 5.12z" fill="#e05b50"/><path d="M261.6 204.84a32.71 32.71 0 0 0 3.52-3.29 7.4 7.4 0 0 0 1.73-3.61c.65-.5.94-2.51-1.49-1.3a43.15 43.15 0 0 1-6.5 1.91c-.06.21-1.23 4.49 2.73 6.29" fill="#b8413c"/><path d="M248.56 206.23a2.41 2.41 0 0 1-1.88-1.19c-.66-1.16-.52-1.64-.52-1.64s-2.08 3.23 2.4 2.83" fill="#cb5353"/><path d="M245.68 208.28l1.1 1.09c1.44 1.44 3.67 1.43 6.11.67 0 0-1.4-2.25-3.48-2.34a9.88 9.88 0 0 0-3.73.57" fill="#b8413c"/><path d="M97.1 187.5s13.39 22.94 29.77 19.92 19.27-48.37 19.27-48.37h-7.47S131.85 185.4 126 187.5s-13.51-6.15-13.51-6.15-11.54-4.21-15.34 6.15" fill="#f2b387"/><path d="M137.7 159.56a22.94 22.94 0 0 1-1.57-5.15c-.62-3.2 2.23-6.08 2.59-6.89s1.79-.41.72 3.11 1.54 1.12 3.28-1.38.2-5.31 2.46-8 2 2.24 1.64 3.93a3.2 3.2 0 0 1 1.48 2.25 6.87 6.87 0 0 1 0 2.59 3.17 3.17 0 0 1 .72 2.25c-.1 1.38-.46 1.64-.46 1.64a3.66 3.66 0 0 1 .15 2.55c-.36 1.74-4 6.89-4 6.89l-7-3.78zM96 161l5.38 6.2s-9.62 5.95-15 4.44l-9.49-11.2S92.08 164.2 96 161" fill="#f2b387"/><path d="M74.53 154.87c1.24-1.65 2.49-1.79 3.23-1.69-1.62-5.55-1.07-12.92 10.45-17a10.19 10.19 0 0 1 5.46 5.66c1.35 4 6.73 4.14 6.73 4.14s1.71 7.32 3.91 11.32c0 0-3.65 5-12.19 5.92s-10.76-2.77-10.76-2.77c-5 2.2-8.75-3-6.83-5.56" fill="#fdcca5"/><path d="M83.29 140.45L79 145.22s4.32 3.82 3.32 7.34c0 0 1.93 2.61.61 3.86 0 0-3-2.72-5.39-2.72s-4.58 4.68 0 7.58c0 0 3 .59 4.06-.16 0 0 1.56.85 1.7 2.12 0 .23-.84 3-1.57 3 0 0-6.23-2.06-9.61-4.62s-8.75-8.6-6-13.73c0 0 .55-8.59 11.12-13.94 5.62-2.85 8.78-3.66 10.54-3.45a2.2 2.2 0 0 1 2.1 2.28q.2 2.35-6.59 7.71z" fill="#3c3c42"/><path d="M160.08 176.63L274.74 162l3.55 10.26s-78.55 27.5-99.57 28.35-18.64-24-18.64-24z" fill="#47416f"/><path d="M101.23 167.63s-11.06 4.3-15.67 3.23c0 0 .08 14.8 9.94 25.55s21.74 11.48 42 11.26c19.59-.22 20.48-1.3 20.48-1.3l2.63-30.89-33.61-2.87s-16.84-4.7-25.81-5" fill="#0047ab"/><path d="M160.22 175.56s19.17-17.89 37.76-23.25 49.58 42.24 49.58 42.24l-11.4 6.56-34.45-26.25s-11.78 28.39-43.87 31.41z" fill="#524779"/><path d="M94.21 184.64s13.4 22.94 29.78 19.92 19.27-48.37 19.27-48.37h-7.48s-6.82 26.35-12.72 28.45-13.51-6.15-13.51-6.15-11.55-4.21-15.34 6.15" fill="#fdcca5"/><path d="M117.29 181.85l-14.75 15.83s-12.42-10.54-11.12-15.35 8.36-14 25.87-.48" fill="#0047ab"/><path d="M138.18 151.82a1.1 1.1 0 0 0 1.42-.62l7.9-20.64a1.14 1.14 0 0 0-.62-1.46 1.1 1.1 0 0 0-1.42.61l-7.9 20.63a1.15 1.15 0 0 0 .62 1.47" fill="#666"/><path d="M134.81 156.7a22.67 22.67 0 0 1-1.56-5.15c-.62-3.2 2.23-6.08 2.59-6.89s1.79-.41.71 3.11 1.54 1.12 3.28-1.38.21-5.31 2.46-8 2 2.24 1.64 3.93a3.23 3.23 0 0 1 1.49 2.24 7.12 7.12 0 0 1 0 2.59 3.15 3.15 0 0 1 .71 2.26c-.1 1.38-.46 1.64-.46 1.64a3.69 3.69 0 0 1 .16 2.55c-.36 1.73-4 6.89-4 6.89l-7-3.78z" fill="#fdcca5"/><path d="M91.33 142s-1.25-.49-2.92.95a3.83 3.83 0 0 0-1.4 3.26s2-3.6 4.31-4.21m.85 4.55c.73.76 1.58 1.24 1.91 1.05s0-1-.72-1.73-1.58-1.24-1.91-1.05 0 1 .72 1.73" fill="#666"/><path d="M275 162.6l1.6 9.59s4.58-1.18 10.8-3.1l1.62-.51c2.11-.66 3-2.7 3.23-5.27a27.59 27.59 0 0 0-1.11-8.7c-.18-.67-.38-1.33-.59-2a29.67 29.67 0 0 0-1.76-4.38v-.31c-.19-2.56-2.48-3.43-2.77-2.63a9 9 0 0 0-.32 1.91 1.86 1.86 0 0 0-.74.56c-.34.51-1.18 2.16-1.3 2.44a8.54 8.54 0 0 0 0 1.62c-.05.2-.1.4-.14.6-.13.79-.27 1.58-.41 2.37q-.49 2.76-1.05 5.52a6.22 6.22 0 0 0-.09 1.36l-6.94.93z" fill="#e05b50"/><path d="M288 168.72l1.44-.5c1.88-.66 2.7-2.67 2.88-5.22 0 0-2.64.26-3.5 2.1a9.18 9.18 0 0 0-.83 3.62M284 155c3.61-2.36 5.74-.87 7.21-.18-.16-.69-.33-1.37-.52-2a32.36 32.36 0 0 0-1.58-4.49v-.32c-.17-2.62-2.21-3.51-2.47-2.7a11.1 11.1 0 0 0-.29 2 1.68 1.68 0 0 0-.66.57c-.31.53-1.05 2.22-1.16 2.5a10 10 0 0 0 0 1.66 6 6 0 0 0-.12.61c-.11.8-.23 1.61-.36 2.41" fill="#b8413c"/><path d="M268.76 163.91l2.74 10s1.1-9-2.74-10" fill="#38355a"/><path d="M158 63h160v46H158z" fill="#fff" stroke="#0047ab" stroke-width="2"/><path d="M297 95.93c-1.68 4.2-5.68 4.27-7.58 0l-9.95-20a.44.44 0 0 1 .2-.59.45.45 0 0 1 .2 0h6.82a.42.42 0 0 1 .39.24L295 91.36a1.17 1.17 0 0 0 1 .63 1.15 1.15 0 0 0 1-.63l7.88-15.82a.42.42 0 0 1 .39-.24h1.42a.29.29 0 0 1 .22.09.29.29 0 0 1 .06.35L297 95.93z" fill="#5da7da"/><path d="M24 1h160v46H24z" fill="#fff" stroke="#0047ab" stroke-width="2"/><path d="M162.62 20.58h5l-14.2 16.82L158 26.1h-4.73l5.57-15.5h9.39z" fill="#085385"/><text transform="translate(53.7 33.26)" font-size="28" fill="#f44336" font-family="Helvetica">-66.00</text><text transform="translate(168.17 95.84)" font-size="28" fill="#4cb04f" font-family="Helvetica">+100.00</text></svg>