<svg xmlns="http://www.w3.org/2000/svg" viewBox="0 0 316 54"><path d="M172 29a25 25 0 0 1 25-25h-29V0h-20v4H88V0H68v4h-4a10 10 0 0 0-10 10v4H44a6 6 0 0 0-6 6v1H0v6h38v1a6 6 0 0 0 6 6h10v6a10 10 0 0 0 10 10h133a25 25 0 0 1-25-25zm-4 10H68V18h100z" fill="#303030" fill-rule="evenodd"/><path fill="#303030" d="M68 18h100v21H68z"/><path d="M198 4v50h-1a25 25 0 0 1 0-50z" fill="#303030" fill-rule="evenodd"/><path fill="#252525" d="M68 18h100v21H68z"/><circle cx="86" cy="29" r="7" fill="#fff"/><path d="M90.37 25.67l-3.18 7.42c-.53 1.54-1.79 1.56-2.4 0l-3.15-7.36a.17.17 0 0 1 .07-.21h2.22a.14.14 0 0 1 .12.09l2.51 5.82a.34.34 0 0 0 .65 0l2.49-5.82a.17.17 0 0 1 .13-.09h.45a.08.08 0 0 1 .07 0 .11.11 0 0 1 0 .07s.02.06.02.08z" fill="#252525"/><text transform="translate(98 32)" style="isolation:isolate" font-size="8" fill="#fff" font-family="SFProText-Bold,SF Pro Text" font-weight="700" letter-spacing="-.083em" id="VeChain-APP">V<tspan x="5.11" y="0" letter-spacing="-.024em">eChain APP</tspan></text><path d="M316 14v30a10 10 0 0 1-10 10H197a25 25 0 0 1 0-50h109a10 10 0 0 1 10 10z" fill="#ddd" fill-rule="evenodd"/><circle cx="198" cy="29" r="14" fill="#303030"/><circle cx="198" cy="29" r="12" fill="#fff"/></svg>