<svg width="128" height="128" viewBox="0 0 128 128" xmlns="http://www.w3.org/2000/svg"><g fill="none" fill-rule="evenodd"><rect fill="#0047AB" width="128" height="128"/><path d="M93.478 82.823a5.754 5.754 0 0 1-2.839 2.833l-46.088 23a1.553 1.553 0 0 1-1.793-.554 1.342 1.342 0 0 1-.22-.397 2.164 2.164 0 0 1-.087-.606V96.076a1.18 1.18 0 0 1 .052-.272c.151-.536.51-.991.995-1.265l31.43-15.681a4.181 4.181 0 0 0 1.631-5.681 4.13 4.13 0 0 0-1.59-1.606L37.362 52.8A5.749 5.749 0 0 1 34 47.57a5.749 5.749 0 0 1 3.362-5.227l46.09-23a1.553 1.553 0 0 1 1.79.553c.096.12.17.256.22.402.058.197.087.402.087.607v11.018a1.188 1.188 0 0 1-.051.272c-.152.537-.51.991-.996 1.265l-31.427 15.68a4.181 4.181 0 0 0-.045 7.294l37.61 18.766a5.752 5.752 0 0 1 2.838 7.622z" id="Path" fill="#FFF"/></g></svg>