<svg width="260" height="220" viewBox="0 0 260 220" xmlns="http://www.w3.org/2000/svg"><g fill="none" fill-rule="evenodd"><path d="M0 0h260v220H0z"/><ellipse fill="#E5E5EA" cx="130.5" cy="201" rx="48.5" ry="7"/><path d="M71.85 79.426c-11.99 4.138-25.096-2.24-29.271-14.25-4.177-12.01 2.157-25.1 14.148-29.24 11.99-4.14 25.095 2.24 29.27 14.249 4.177 12.01-2.158 25.1-14.147 29.24z" fill="#FAFAFA"/><path d="M57.48 40.559c.925-.39 1.868-.7 2.816-.933.95-.234 1.908-.363 2.852-.433.945-.073 1.881-.046 2.792.036.91.078 1.797.24 2.649.451a18.375 18.375 0 0 1 4.634 1.862 18.965 18.965 0 0 1 3.529 2.62 18.015 18.015 0 0 1 3.807 5.117c.574 1.187.8 1.96.8 2.16l.158.449c.09.26.207.556.275.908.38 1.373.723 3.45.52 6.005-.083 1.28-.39 2.657-.825 4.097l-.41 1.074c-.071.18-.132.368-.215.547l-.265.535c-.184.356-.346.732-.556 1.087l-.662 1.066c-.96 1.39-2.11 2.772-3.551 3.93a19.438 19.438 0 0 1-4.91 2.875 19.447 19.447 0 0 1-5.564 1.19c-1.847.116-3.63-.126-5.28-.505l-1.21-.34c-.395-.119-.768-.287-1.145-.425l-.558-.217c-.183-.075-.354-.173-.53-.257l-1.029-.516c-1.297-.768-2.456-1.577-3.383-2.464-1.882-1.747-3.036-3.509-3.686-4.777-.188-.305-.303-.602-.412-.855l-.274-.64-.162-.395a.563.563 0 0 1-.047-.138c.003-.001.01.01.022.03l-.016-.043a18.269 18.269 0 0 1-1.045-6.557c.032-1.361.21-2.85.608-4.395a18.905 18.905 0 0 1 1.913-4.672c.443-.768.946-1.526 1.526-2.244a17.21 17.21 0 0 1 1.92-2.058 17.487 17.487 0 0 1 2.293-1.774c.825-.53 1.702-1 2.622-1.401zm-1.88 2.618a16.774 16.774 0 0 0-2.138 1.627 16.35 16.35 0 0 0-1.804 1.887 16.716 16.716 0 0 0-1.457 2.06 18.5 18.5 0 0 0-1.9 4.315 19.613 19.613 0 0 0-.733 4.113c-.177 2.575.186 4.689.509 6.116.332 1.432.603 2.215.503 2.257l-.014-.001.062.1c.676 1.245 1.845 2.973 3.723 4.682.925.869 2.077 1.658 3.363 2.408l1.018.503c.174.082.343.177.524.25l.552.21c.373.136.742.3 1.132.416l1.195.329c1.627.366 3.385.6 5.203.48a19.297 19.297 0 0 0 5.48-1.176c1.79-.722 3.42-1.69 4.837-2.826 1.422-1.138 2.56-2.496 3.511-3.862l.658-1.048c.209-.35.37-.72.553-1.07l.265-.526c.083-.176.144-.36.216-.539l.41-1.057c.44-1.42.754-2.778.848-4.042.226-2.525-.083-4.588-.428-5.96-.06-.352-.168-.65-.25-.911l-.135-.436c-.14-.103-.505-.815-1.204-1.925-.783-1.23-2.024-2.966-3.97-4.632a19.052 19.052 0 0 0-3.415-2.331c-1.31-.682-2.778-1.267-4.374-1.622a16.286 16.286 0 0 0-2.47-.374 15.972 15.972 0 0 0-2.59 0c-.874.074-1.76.2-2.639.422-.878.22-1.75.51-2.608.87-.853.374-1.666.808-2.433 1.293z" fill="#E1E1E1"/><path fill="#085385" fill-rule="nonzero" d="M64.539 53.951l4.669-2.696-5.342 21.2-1.042-11.572-4.376 2.527-2.068-15.5 8.695-5.021z"/><path d="M186.966 82.184c-16.066-10.392-20.695-31.8-10.336-47.82 10.357-16.019 31.779-20.582 47.846-10.191 16.067 10.39 20.695 31.799 10.337 47.818s-31.78 20.581-47.847 10.193z" fill="#FAFAFA"/><path d="M223.433 32.406c1.153.906 2.19 1.919 3.146 2.97.96 1.05 1.791 2.18 2.535 3.333a25.456 25.456 0 0 1 1.913 3.548c1.08 2.404 1.727 4.86 2.079 7.197.333 2.342.348 4.573.163 6.59-.378 4.05-1.553 7.194-2.534 9.227-.87 1.772-1.575 2.75-1.814 2.939l-.384.602c-.224.347-.467.759-.82 1.164-1.272 1.717-3.409 4.04-6.619 6.16-1.588 1.083-3.499 1.993-5.604 2.808l-1.646.509c-.28.081-.558.183-.846.25l-.878.181c-.591.111-1.184.267-1.798.346l-1.871.201c-2.53.151-5.225.067-7.925-.567a29.157 29.157 0 0 1-7.932-3.148 29.171 29.171 0 0 1-6.545-5.48c-1.844-2.074-3.204-4.407-4.28-6.706-.24-.588-.48-1.169-.716-1.743-.223-.577-.37-1.174-.554-1.747l-.26-.86c-.079-.285-.122-.578-.185-.863l-.34-1.693c-.29-2.242-.404-4.36-.212-6.275.327-3.837 1.344-6.828 2.242-8.768.188-.504.433-.914.63-1.277l.505-.914c.128-.228.234-.411.317-.557.072-.124.113-.186.12-.183.003.003-.003.023-.02.06.072-.115.148-.236.228-.36 1.23-1.896 3.315-4.543 6.598-6.995a29.214 29.214 0 0 1 5.756-3.34c2.196-.939 4.65-1.693 7.289-2.053a25.994 25.994 0 0 1 4.062-.268c1.383.016 2.795.117 4.205.367 1.408.246 2.828.584 4.216 1.073a28.053 28.053 0 0 1 4.077 1.805 28.012 28.012 0 0 1 3.702 2.467zm-4.76-.59a27.251 27.251 0 0 0-3.774-1.682c-1.284-.461-2.595-.781-3.898-1.024-1.304-.247-2.612-.357-3.896-.391a25.073 25.073 0 0 0-3.781.18c-2.461.285-4.77.928-6.855 1.74a29.42 29.42 0 0 0-5.538 2.93c-3.208 2.17-5.37 4.55-6.759 6.25-1.386 1.716-2.062 2.76-2.204 2.68a.024.024 0 0 1-.01-.013l-.062.16c-.847 1.95-1.811 4.928-2.097 8.726-.172 1.896-.041 3.986.26 6.198l.345 1.669c.064.281.108.569.188.85.086.28.173.563.262.847.185.565.332 1.152.555 1.721.234.565.473 1.137.714 1.716 1.07 2.262 2.416 4.555 4.237 6.595a28.946 28.946 0 0 0 6.45 5.39 28.918 28.918 0 0 0 7.809 3.108c2.658.63 5.313.72 7.808.583l1.845-.19c.607-.076 1.192-.227 1.776-.334.291-.057.58-.116.867-.173.285-.064.559-.163.836-.242.552-.167 1.095-.33 1.63-.49 2.082-.792 3.978-1.675 5.558-2.732 3.194-2.065 5.347-4.335 6.651-6.01.36-.397.612-.799.846-1.137l.389-.561c-.004-.264.499-1.353 1.165-3.202.729-2.061 1.636-5.132 1.808-8.97a28.578 28.578 0 0 0-.398-6.19c-.404-2.177-1.068-4.453-2.122-6.667a24.43 24.43 0 0 0-1.84-3.266c-.707-1.06-1.491-2.098-2.391-3.061-.895-.965-1.863-1.896-2.936-2.73a27.042 27.042 0 0 0-3.437-2.279z" fill="#E1E1E1"/><path d="M228.39 50.868L202.792 69.05c-4.841 4.04-9.628 1.498-8.979-4.978l1.802-31.076c.02-.337.307-.6.64-.585.091.004.18.029.26.073l8.088 4.484a.597.597 0 0 1 .3.558l-1.373 24.598c-.035.6.269 1.16.784 1.446a1.543 1.543 0 0 0 1.643-.1l20.087-14.223a.598.598 0 0 1 .636-.039l1.684.934a.414.414 0 0 1 .198.253.434.434 0 0 1-.04.324.428.428 0 0 1-.13.149z" fill="#5DA7DA" fill-rule="nonzero"/><g transform="translate(82 79)"><rect fill="#0047AB" width="97" height="97" rx="15"/><path d="M70.608 62.3a4.344 4.344 0 0 1-2.128 2.154L33.913 81.929c-.49.18-1.04.008-1.344-.421a1.023 1.023 0 0 1-.165-.302 1.664 1.664 0 0 1-.066-.46V72.37a.907.907 0 0 1 .039-.207c.114-.408.382-.753.747-.961l23.571-11.914c1.515-.852 2.062-2.783 1.225-4.317a3.12 3.12 0 0 0-1.193-1.22L28.522 39.49A4.371 4.371 0 0 1 26 35.518c0-1.709.985-3.26 2.522-3.972l34.566-17.475c.49-.18 1.04-.008 1.343.42a1 1 0 0 1 .165.306c.044.15.066.305.066.461v8.371a.913.913 0 0 1-.039.207 1.6 1.6 0 0 1-.747.961l-23.57 11.914c-1.518.852-2.067 2.786-1.225 4.322.277.51.69.932 1.192 1.22L68.48 56.51c2.167 1.007 3.119 3.597 2.128 5.79z" fill="#FFF"/></g><path d="M237.5 141a1.553 1.553 0 0 1-.833-.228l-.25-.156c-3.965-2.457-6.416-7.06-6.417-12.05v-.127c-.005-.658.313-1.269.833-1.598l5.834-3.596a1.542 1.542 0 0 1 1.666 0l5.834 3.596c.52.33.838.94.833 1.598v.128c-.004 4.993-2.463 9.597-6.433 12.05l-.25.155c-.25.151-.531.23-.817.228zM49.63 164.013c.832 0 1.555-.704 1.555-1.512 0-.809-.723-1.512-1.555-1.512s-1.52.703-1.52 1.512c0 .808.688 1.512 1.52 1.512zm4.377-3.024H62v3.023h-1.556V167H57.37v-2.988h-3.363C53.392 165.77 51.656 167 49.63 167c-2.568 0-4.63-2.004-4.63-4.5s2.062-4.5 4.63-4.5c2.026 0 3.762 1.23 4.377 2.988v.001z" fill="#EFEFF4" fill-rule="nonzero"/><circle stroke="#EFEFF4" stroke-width="5" cx="48" cy="109" r="7"/><path fill="#EFEFF4" d="M202.605 144.436l5.394 7.704-5.66 7.51-8.892-3.061.164-9.404zM134.5 43.25l-2.87 3.18.218-4.278-4.277.218 3.179-2.87-3.18-2.87 4.278.218-.218-4.277 2.87 3.179 2.87-3.18-.218 4.278 4.277-.218-3.179 2.87 3.18 2.87-4.278-.218.218 4.277zM208.5 113.25l-5.303 1.553 1.553-5.303-1.553-5.303 5.303 1.553 5.303-1.553-1.553 5.303 1.553 5.303z"/><path stroke="#EFEFF4" stroke-width="5" d="M25 140l-1 .732.134-1.232L23 139l1.134-.5-.134-1.232 1 .732 1-.732-.134 1.232L27 139l-1.134.5.134 1.232z"/></g></svg>