<svg width="108" height="193" viewBox="0 0 108 193" xmlns="http://www.w3.org/2000/svg"><g id="animation/img" stroke="none" stroke-width="1" fill="none" fill-rule="evenodd"><g id="welcome--3-copy-4" transform="translate(-153 -173)"><g id="Group-2" transform="translate(153 173)"><g id="Group-23-Copy"><path d="M.143 15.025c0-5.6 3.11-10.878 8.368-13.5C10.621.473 12.971 0 15.327 0H92.39c2.356 0 4.706.473 6.815 1.525a15.057 15.057 0 0 1 8.368 13.5v162.747c0 2.099-.37 4.196-1.211 6.12-2.487 5.682-7.937 9.068-13.735 9.068H15.327c-2.357 0-4.706-.474-6.816-1.525a15.057 15.057 0 0 1-8.368-13.5V15.025z" id="Fill-3" fill="#515151"/><path d="M3.979 177.887c0 5.81 4.703 10.52 10.504 10.52H92.38c5.801 0 10.504-4.71 10.504-10.52V15.073c0-5.81-4.703-10.52-10.504-10.52H14.484c-5.802 0-10.505 4.71-10.505 10.52v162.814z" id="Fill-5" fill="#FFF"/><path d="M3.979 147.424h98.905v31.082c0 5.468-4.432 9.9-9.9 9.9H13.88c-5.468 0-9.9-4.432-9.9-9.9v-31.082z" id="Rectangle" fill="#F7F7F7"/><path d="M41.778 0c-.878.833-1.434 2.052-1.434 3.419 0 2.52 1.881 4.55 4.218 4.55h18.185c2.338 0 4.22-2.03 4.22-4.55 0-1.367-.557-2.586-1.436-3.419H41.778z" id="Fill-7" fill="#515151"/></g><path id="Rectangle" fill="#333" d="M25.8 159.84h20.16v2.88H25.8z"/><path id="Rectangle-Copy-7" fill="#333" d="M36.9 57.6h32.4v3.6H36.9z"/><path id="Rectangle-Copy-8" fill="#333" d="M30.6 71.1h23.04v5.4H30.6z"/><path id="Rectangle-Copy-9" fill="#999" d="M14 85h46.08v2.88H14z"/><path id="Rectangle-Copy-4" fill="#999" d="M25.8 164.16h20.16v2.88H25.8z"/><path id="Rectangle-Copy-5" fill="#999" d="M8.64 151.2H28.8v2.88H8.64z"/><path id="Rectangle-Copy-6" fill="#999" d="M77.76 151.2h20.16v2.88H77.76z"/><rect id="Rectangle" fill="#E5E5EA" x="20.16" y="172.8" width="67.68" height="8.64" rx="4.32"/><circle id="Oval" fill="#007AFF" cx="24.66" cy="177.3" r="4.5"/><rect id="Rectangle" stroke="#EFEFF4" stroke-width="1.44" x="9" y="18.9" width="89.28" height="77.76" rx="8.64"/><g id="test" transform="translate(44 30)" fill-rule="nonzero"><rect id="Rectangle" fill="#9C27B0" x="0" y="0" width="20" height="20" rx="10"/><path d="M7.027 19.532C13.01 18.332 16 15.821 16 12 16 6.465 12.252 1.804 7.155.42c-1.96.556-3.642 1.702-5.047 3.438C.703 5.594 0 7.723 0 10.245c.064 2.158.723 4.065 1.977 5.722s2.937 2.846 5.05 3.565z" id="Path" fill="#F44336" style="mix-blend-mode:soft-light"/><path d="M17.165 3.034C11.489 3.47 7 8.212 7 14c0 1.462.583 3.437 1.75 5.927.706.039 1.217.096 1.974.043a9.966 9.966 0 0 0 2.393-.475c1.816-.595 3.178-1.635 4.102-2.573 1.468-1.489 2.374-3.337 2.688-5.582.06-.424.06-.87.093-1.315 0-1.384-.265-2.69-.795-3.917-.53-1.227-1.21-2.252-2.04-3.074z" id="Path" fill="#00BCD4" style="mix-blend-mode:soft-light"/><circle id="Oval" fill="#2196F3" style="mix-blend-mode:soft-light" cx="10" cy="10" r="8"/></g><g id="test" transform="translate(12 158)" fill-rule="nonzero"><rect id="Rectangle" fill="#F44336" x=".099" y="0" width="9.901" height="10" rx="4.95"/><path d="M.505 6.98C2.5 6.773 4.059 5.07 4.059 3A4 4 0 0 0 3.11.402c-.875.366-1.595.974-2.16 1.825-.566.851-.85 1.745-.85 2.682.015.484.05.85.105 1.098.066.303.166.627.3.972z" id="Path" fill="#CDDC39" style="mix-blend-mode:soft-light"/><path d="M9.978 5.478C9.732 2.596 7.468.296 4.62.026c-1.32.14-2.41.693-3.269 1.658C.494 2.65.076 3.822.1 5.202.212 6.66.741 7.818 1.687 8.675 2.632 9.53 3.764 9.973 5.08 10c1.577-.054 2.83-.655 3.76-1.803.333-.364.62-.867.857-1.508.106-.284.2-.688.28-1.211z" id="Path" fill="#FFC107" style="mix-blend-mode:soft-light"/><path d="M4.432 9.953C6.362 9.107 7.525 7.26 7.525 5A5.505 5.505 0 0 0 4.432.039c-.58.064-1.13.237-1.65.518a5.614 5.614 0 0 0-1.46 1.165C.556 2.606.148 3.682.1 4.953a4.862 4.862 0 0 0 1.224 3.318 4.86 4.86 0 0 0 3.11 1.682z" id="Path" fill="#03A9F4" style="mix-blend-mode:soft-light"/></g><g id="vechain" transform="translate(14 66)" fill-rule="nonzero"><path d="M1.955 0c.092 0 .178.056.218.143l3.607 7.9.059.111c.364.595 1.21.558 1.514-.111L10.948.149l.03-.048a.24.24 0 0 1 .188-.095h.213l.05.009c.096.032.148.151.1.252L6.537 11.27l-.06.111c-.363.595-1.21.558-1.514-.111L.025.379.005.32C-.026.162.086 0 .245 0z" id="Oval-2" fill="#1EB5FB"/><path d="M4.811 10.817L2.112.152C2.073.062 1.983 0 1.912 0H.234C.052 0-.05.196.024.363L4.81 10.817z" id="Path" fill="#FFF" opacity=".1"/><path d="M5.773 7.867L.025.37C-.056.185.075 0 .242 0h1.729c.097.006.166.082.2.149l3.602 7.718z" id="Path" fill="#FFF" opacity=".1"/></g></g></g></g></svg>