<svg width="512" height="512" viewBox="0 0 512 512" xmlns="http://www.w3.org/2000/svg"><path fill="#0047AB" d="M0 0h512v512H0z"/><path d="M373.91 331.29a23.015 23.015 0 0 1-11.352 11.334l-184.355 92.002a6.214 6.214 0 0 1-7.17-2.216 5.367 5.367 0 0 1-.879-1.591 8.655 8.655 0 0 1-.35-2.423v-44.092c.026-.37.095-.734.207-1.087a8.45 8.45 0 0 1 3.982-5.062l125.716-62.723c8.078-4.485 10.997-14.648 6.529-22.724a16.524 16.524 0 0 0-6.361-6.422L149.45 211.194a22.994 22.994 0 0 1-13.45-20.91 22.994 22.994 0 0 1 13.45-20.91l184.354-92.001a6.21 6.21 0 0 1 7.163 2.216c.386.48.683 1.025.88 1.608.232.788.35 1.605.35 2.427v44.07a4.75 4.75 0 0 1-.207 1.091 8.446 8.446 0 0 1-3.982 5.06l-125.71 62.722c-8.096 4.483-11.022 14.667-6.535 22.752a16.562 16.562 0 0 0 6.357 6.422l150.438 75.064c11.557 5.3 16.635 18.937 11.352 30.485z" fill="#FFF"/></svg>