<?xml version="1.0" encoding="UTF-8"?>
<svg width="512px" height="512px" viewBox="0 0 512 512" version="1.1"
    xmlns="http://www.w3.org/2000/svg"
    xmlns:xlink="http://www.w3.org/1999/xlink">
    <g stroke="none" stroke-width="1" fill="none" fill-rule="evenodd">
        <g>
            <polygon id="Path" points="0 0 512 0 512 512 0 512"></polygon>
            <path d="M424.72,135 L297.23,394.74 C275.86,448.69 224.97,449.58 200.83,394.74 L74.18,137.41 C72.8146679,134.612581 73.9738587,131.237948 76.77,129.87 C77.5401122,129.49701 78.3843195,129.3 79.24,129.3 L166.08,129.3 C168.207194,129.314046 170.143454,130.530017 171.08,132.44 L271.76,335.89 C274.202152,340.856645 279.255411,344.003012 284.79,344.003012 C290.324589,344.003012 295.377848,340.856645 297.82,335.89 L398.06,132.44 C399.008182,130.517196 400.966119,129.3 403.11,129.3 L421.19,129.3 C422.232301,129.3 423.231912,129.714052 423.96893,130.45107 C424.705948,131.188088 425.120509,132.187699 425.120509,133.23 C425.129989,133.843484 424.992826,134.450429 424.72,135 Z" fill="#bedcf0" fill-rule="nonzero"></path>
        </g>
    </g>
</svg>