<svg xmlns="http://www.w3.org/2000/svg" viewBox="0 0 512 512">
  <path fill-rule="evenodd" fill="white" d="M86.6844805,0 L10.8031628,0 C2.9080856,0 -2.4372195,8.34404462 1.12631718,15.4219926 L1.12631718,15.4219926 L220.114868,458.388616 C234.374135,487.203795 275.626169,487.203795 289.885436,458.388616 L289.885436,458.388616 L511.162638,10.8737 C513.709849,6.06862731 510.143753,0.254236712 504.542446,0.254236712 L504.542446,0.254236712 L495.121602,0.254236712 C491.046062,0.254236712 487.236765,2.52965402 485.444756,6.06862731 L485.444756,6.06862731 L326.043047,327.169472 C311.783779,355.992277 270.531744,355.992277 256.272479,327.169472 L256.272479,327.169472 L96.3613257,5.8143906 C94.5769975,2.28812901 90.7574588,0 86.6844805,0 L86.6844805,0 Z" ></path>
</svg> 