<svg width="240" height="187" viewBox="0 0 240 187" xmlns="http://www.w3.org/2000/svg"><defs><linearGradient x1="50%" y1="0%" x2="50%" y2="100%" id="linearGradient-1"><stop stop-color="#365065" offset="0%"/><stop stop-color="#4F7795" offset="100%"/></linearGradient><linearGradient x1="50%" y1="0%" x2="50%" y2="100%" id="linearGradient-2"><stop stop-color="#64364F" offset="0%"/><stop stop-color="#955077" offset="100%"/></linearGradient><linearGradient x1="50%" y1="0%" x2="50%" y2="100%" id="linearGradient-3"><stop stop-color="#644936" offset="0%"/><stop stop-color="#956D50" offset="100%"/></linearGradient></defs><g id="animation/img" stroke="none" stroke-width="1" fill="none" fill-rule="evenodd"><g id="welcome--2-copy-5" transform="translate(-71 -163)"><g id="Group-4" transform="translate(71 163)"><g id="Group" transform="translate(102 93)"><rect id="Rectangle" fill="url(#linearGradient-1)" x="0" y="0" width="138" height="94" rx="10"/><g id="Group-2" transform="translate(9 67)"><text id="3" font-family="Roboto-Regular, Roboto" font-size="14" font-weight="normal" letter-spacing="-.336" fill="#FFF"><tspan x="1.203" y="14.339">3</tspan></text><path id="Rectangle" fill="#FFF" opacity=".8" d="M13 9h40v5.022H13z"/><g id="vechain" opacity=".377" transform="translate(104.251 .3)" fill-rule="nonzero"><path d="M2.58 0c.12 0 .234.074.287.189l4.759 10.423.06.117c.47.816 1.61.777 2.016-.117L14.445.197l.04-.064a.317.317 0 0 1 .248-.125h.28l.06.009c.131.038.204.2.138.336L8.626 14.868l-.063.122c-.471.81-1.608.77-2.013-.122L.034.5.009.43C-.04.22.11 0 .321 0z" id="Oval-2" fill-opacity=".5" fill="#EFEFF4"/><path d="M6.348 14.272L2.787.2C2.735.083 2.617 0 2.522 0H.31C.068 0-.064.259.03.48l6.317 13.792z" id="Path" fill="#FFF" opacity=".1"/><path d="M7.618 10.38L.032.487C-.074.244.1 0 .32 0H2.6c.129.008.22.108.266.196L7.618 10.38z" id="Path" fill="#FFF" opacity=".1"/></g></g></g><g id="Group" transform="translate(63 56)"><rect id="Rectangle" fill="url(#linearGradient-2)" x="0" y="0" width="138" height="94" rx="10"/><g id="Group-2" transform="translate(9 67)"><text id="2" font-family="Roboto-Regular, Roboto" font-size="14" font-weight="normal" letter-spacing="-.336" fill="#FFF"><tspan x="1.203" y="14.339">2</tspan></text><path id="Rectangle" fill="#FFF" opacity=".8" d="M13 9h40v5.022H13z"/><g id="vechain" opacity=".377" transform="translate(104.251 .3)" fill-rule="nonzero"><path d="M2.58 0c.12 0 .234.074.287.189l4.759 10.423.06.117c.47.816 1.61.777 2.016-.117L14.445.197l.04-.064a.317.317 0 0 1 .248-.125h.28l.06.009c.131.038.204.2.138.336L8.626 14.868l-.063.122c-.471.81-1.608.77-2.013-.122L.034.5.009.43C-.04.22.11 0 .321 0z" id="Oval-2" fill-opacity=".5" fill="#EFEFF4"/><path d="M6.348 14.272L2.787.2C2.735.083 2.617 0 2.522 0H.31C.068 0-.064.259.03.48l6.317 13.792z" id="Path" fill="#FFF" opacity=".1"/><path d="M7.618 10.38L.032.487C-.074.244.1 0 .32 0H2.6c.129.008.22.108.266.196L7.618 10.38z" id="Path" fill="#FFF" opacity=".1"/></g></g></g><g id="Group-3"><g id="Group"><rect id="Rectangle" fill="url(#linearGradient-3)" x="0" y="0" width="165.6" height="112.8" rx="12"/><g id="Group-2" transform="translate(10.8 80.4)"><text id="1" font-family="Roboto-Regular, Roboto" font-size="16.8" font-weight="normal" letter-spacing="-.403" fill="#FFF"><tspan x="1.444" y="17.607">1</tspan></text><path id="Rectangle" fill="#FFF" opacity=".8" d="M15.6 10.8h48v6.027h-48z"/><g id="vechain" opacity=".377" transform="translate(125.102 .359)" fill-rule="nonzero"><path d="M3.095 0c.146 0 .282.09.346.226l5.71 12.508.066.13c.56.99 1.937.947 2.425-.13L17.334.236l.038-.064A.382.382 0 0 1 17.68.01h.336l.064.008c.162.042.254.239.173.405L10.35 17.842l-.065.13c-.56.99-1.937.947-2.426-.13L.04.6.013.524C-.052.268.13 0 .386 0z" id="Oval-2" fill-opacity=".5" fill="#EFEFF4"/><path d="M7.618 17.126L3.344.241C3.282.1 3.14 0 3.026 0H.372C.082 0-.077.31.037.575l7.58 16.551z" id="Path" fill="#FFF" opacity=".1"/><path d="M9.141 12.455L.04.585C-.09.293.119 0 .384 0H3.12c.154.01.264.13.319.235l5.702 12.22z" id="Path" fill="#FFF" opacity=".1"/></g></g><path id="Rectangle-Copy-3" fill="#FFF" opacity=".8" d="M92.4 30h62.161v6.027H92.4z"/><path id="Rectangle-Copy-2" fill="#FFF" opacity=".8" d="M92.4 12h62.161v6.027H92.4z"/></g><g id="test" transform="translate(9.6 6)" fill-rule="nonzero"><rect id="Rectangle" fill="#F44336" x=".356" y="0" width="35.644" height="36" rx="17.822"/><path d="M1.816 25.125c7.189-.738 12.798-6.87 12.798-14.325a14.4 14.4 0 0 0-3.42-9.351c-3.151 1.315-5.745 3.505-7.78 6.569C1.376 11.08.357 14.3.355 17.673c.056 1.74.182 3.057.377 3.951.239 1.093.6 2.26 1.083 3.501z" id="Path" fill="#CDDC39" style="mix-blend-mode:soft-light"/><path d="M35.92 19.72C35.034 9.343 26.886 1.065 16.636.094 11.88.598 7.959 2.588 4.869 6.065 1.779 9.54.275 13.76.356 18.724c.407 5.251 2.312 9.419 5.716 12.503C9.476 34.313 13.55 35.903 18.29 36c5.676-.194 10.187-2.358 13.533-6.49 1.201-1.311 2.23-3.12 3.088-5.428.38-1.024.717-2.479 1.01-4.363z" id="Path" fill="#FFC107" style="mix-blend-mode:soft-light"/><path d="M15.957 35.83c6.947-3.046 11.132-9.694 11.132-17.83 0-7.87-4.547-14.669-11.132-17.86-2.091.23-4.07.852-5.94 1.864C8.15 3.015 6.398 4.414 4.762 6.2 1.997 9.38.53 13.258.356 17.832c-.027 4.542 1.441 8.523 4.405 11.943 2.965 3.42 6.696 5.438 11.196 6.055z" id="Path" fill="#03A9F4" style="mix-blend-mode:soft-light"/></g></g></g></g></g></svg>